<svg id="Layer_1" data-name="Layer 1" xmlns="http://www.w3.org/2000/svg" viewBox="0 0 342.66 50.35"><title>boardgameoracle</title><rect x="0.45" y="0.68" width="49" height="49" style="fill:#fff"/><polyline points="31.8 2 48.35 2 48.35 18.55" style="fill:none;stroke:#7ac943;stroke-miterlimit:10;stroke-width:4px"/><polyline points="18.55 2 2 2 2 18.55" style="fill:none;stroke:#fbb217;stroke-miterlimit:10;stroke-width:4px"/><polyline points="18.55 48.35 2 48.35 2 31.8" style="fill:none;stroke:#6ac7b3;stroke-miterlimit:10;stroke-width:4px"/><polyline points="31.8 48.35 48.35 48.35 48.35 31.8" style="fill:none;stroke:#46c3e6;stroke-miterlimit:10;stroke-width:4px"/><path d="M82,69.73A8.84,8.84,0,0,1,75.22,67a10.1,10.1,0,0,1-2.55-7.15,10.7,10.7,0,0,1,2.6-7.55,9.13,9.13,0,0,1,7.06-2.82A8.63,8.63,0,0,1,89,52.2a10.12,10.12,0,0,1,2.52,7.15,10.74,10.74,0,0,1-2.58,7.59A9,9,0,0,1,82,69.73Zm.15-17.41a5.46,5.46,0,0,0-4.38,2,8,8,0,0,0-1.69,5.29,8.08,8.08,0,0,0,1.64,5.27,5.31,5.31,0,0,0,4.3,2A5.54,5.54,0,0,0,86.47,65a8,8,0,0,0,1.63-5.32,8.35,8.35,0,0,0-1.58-5.43A5.37,5.37,0,0,0,82.16,52.32Z" transform="translate(-56.63 -34.32)" style="fill:#ff1d25"/><path d="M129.91,72.35V46.76h7.29a7.35,7.35,0,0,1,5.27,1.7,6.85,6.85,0,0,1,1.76,5.12,5.7,5.7,0,0,1-.89,3.16,6,6,0,0,1-2.43,2.13A4.89,4.89,0,0,1,143.7,61a7.29,7.29,0,0,1,1,3.94,7.47,7.47,0,0,1-1.89,5.41,7.06,7.06,0,0,1-5.38,2Zm3.21-14.68h4.13a3.47,3.47,0,0,0,2.7-1.12,4.25,4.25,0,0,0,1-3,4.29,4.29,0,0,0-.93-3.07,3.8,3.8,0,0,0-2.85-1h-4.08Zm0,2.71v9.21h4.4a3.7,3.7,0,0,0,2.9-1.2A4.94,4.94,0,0,0,141.49,65q0-4.62-3.9-4.62Z" transform="translate(-56.63 -34.32)" style="fill:#fff"/><path d="M148.45,62a10,10,0,0,1,2-6.56,7.12,7.12,0,0,1,10.64-.06,9.73,9.73,0,0,1,2.06,6.41v2a9.9,9.9,0,0,1-2,6.54,7.17,7.17,0,0,1-10.64.07A9.73,9.73,0,0,1,148.45,64Zm3.11,1.8a8.12,8.12,0,0,0,1.15,4.61,3.6,3.6,0,0,0,3.11,1.68q4.11,0,4.23-5.94V62a8,8,0,0,0-1.16-4.61,3.59,3.59,0,0,0-3.11-1.7,3.55,3.55,0,0,0-3.07,1.7,8.13,8.13,0,0,0-1.15,4.6Z" transform="translate(-56.63 -34.32)" style="fill:#fff"/><path d="M177,72.35a7,7,0,0,1-.4-2.07,4.93,4.93,0,0,1-4.22,2.42,5.42,5.42,0,0,1-4-1.45,5.5,5.5,0,0,1-1.45-4.08,5.79,5.79,0,0,1,2-4.61,8.1,8.1,0,0,1,5.4-1.74h2.29v-2a3.27,3.27,0,0,0-.76-2.43,3.22,3.22,0,0,0-2.3-.72,3.18,3.18,0,0,0-2.29.84,2.8,2.8,0,0,0-.88,2.12h-3.11a5.08,5.08,0,0,1,.86-2.79,6.06,6.06,0,0,1,2.32-2.08,6.93,6.93,0,0,1,3.26-.76A6.16,6.16,0,0,1,178,54.43a5.65,5.65,0,0,1,1.56,4.23v9.6a11.45,11.45,0,0,0,.6,3.81v.28Zm-4.15-2.48a4.11,4.11,0,0,0,2.18-.63,3.89,3.89,0,0,0,1.52-1.58V63.12h-1.76a5.93,5.93,0,0,0-3.5,1A3.14,3.14,0,0,0,170,66.8a3.41,3.41,0,0,0,.65,2.34A2.79,2.79,0,0,0,172.81,69.87Z" transform="translate(-56.63 -34.32)" style="fill:#fff"/><path d="M192.27,56.25a7.69,7.69,0,0,0-1.4-.12,3.4,3.4,0,0,0-3.34,2.62v13.6h-3.11v-19h3l.05,1.94A3.87,3.87,0,0,1,191,53a2.67,2.67,0,0,1,1.23.25Z" transform="translate(-56.63 -34.32)" style="fill:#fff"/><path d="M194.72,62c0-2.93.54-5.16,1.64-6.7a5.46,5.46,0,0,1,4.72-2.3,4.87,4.87,0,0,1,4.25,2.22V45.35h3.12v27H205.6l-.16-2a4.89,4.89,0,0,1-4.38,2.39,5.41,5.41,0,0,1-4.63-2.29,11,11,0,0,1-1.71-6.48Zm3.11,1.77a8.92,8.92,0,0,0,.95,4.69,3.37,3.37,0,0,0,3.09,1.5,3.66,3.66,0,0,0,3.46-2.33V58a3.73,3.73,0,0,0-3.44-2.28,3.4,3.4,0,0,0-3.1,1.5,8.93,8.93,0,0,0-1,4.61Z" transform="translate(-56.63 -34.32)" style="fill:#fff"/><path d="M237.92,69.17l-.56.7c-1.62,1.89-4,2.83-7.1,2.83A8.09,8.09,0,0,1,223.75,70c-1.58-1.83-2.38-4.42-2.42-7.78v-5c0-3.59.72-6.27,2.15-8.06s3.59-2.68,6.45-2.68a7.8,7.8,0,0,1,5.72,2,8.5,8.5,0,0,1,2.27,5.81h-3.21a6.45,6.45,0,0,0-1.33-3.74,4.27,4.27,0,0,0-3.44-1.34,4.62,4.62,0,0,0-4,1.8c-.86,1.2-1.3,3.12-1.34,5.76V62A10.16,10.16,0,0,0,226,67.88a4.89,4.89,0,0,0,4.24,2.06,5.59,5.59,0,0,0,3.95-1.26l.48-.43V62.37H230V59.61h7.89Z" transform="translate(-56.63 -34.32)" style="fill:#fff"/><path d="M252.53,72.35a6.71,6.71,0,0,1-.4-2.07,4.93,4.93,0,0,1-4.22,2.42,5.46,5.46,0,0,1-4-1.45,5.54,5.54,0,0,1-1.45-4.08,5.79,5.79,0,0,1,2-4.61,8.08,8.08,0,0,1,5.4-1.74h2.28v-2a3.27,3.27,0,0,0-.75-2.43,3.24,3.24,0,0,0-2.3-.72,3.18,3.18,0,0,0-2.29.84,2.77,2.77,0,0,0-.88,2.12h-3.11a5.08,5.08,0,0,1,.86-2.79,6.06,6.06,0,0,1,2.32-2.08,6.89,6.89,0,0,1,3.25-.76,6.17,6.17,0,0,1,4.44,1.45,5.69,5.69,0,0,1,1.56,4.23v9.6a11.45,11.45,0,0,0,.6,3.81v.28Zm-4.15-2.48a4.14,4.14,0,0,0,2.18-.63,3.87,3.87,0,0,0,1.51-1.58V63.12h-1.75a5.91,5.91,0,0,0-3.5,1,3.14,3.14,0,0,0-1.28,2.68,3.41,3.41,0,0,0,.65,2.34A2.79,2.79,0,0,0,248.38,69.87Z" transform="translate(-56.63 -34.32)" style="fill:#fff"/><path d="M262.92,53.33l.07,1.76A5.65,5.65,0,0,1,267.58,53,4.51,4.51,0,0,1,272,55.74,5.62,5.62,0,0,1,277,53q5.25,0,5.38,6.56V72.35h-3.1V59.84a5.2,5.2,0,0,0-.74-3.09,2.88,2.88,0,0,0-2.49-1,2.8,2.8,0,0,0-2.29,1.09,5.06,5.06,0,0,0-1,2.78V72.35h-3.13V59.7q0-4-3.21-4a3.38,3.38,0,0,0-3.32,2.36V72.35H260v-19Z" transform="translate(-56.63 -34.32)" style="fill:#fff"/><path d="M293.88,72.7a6.93,6.93,0,0,1-5.45-2.11c-1.27-1.42-1.91-3.49-1.94-6.22v-2.3a10.68,10.68,0,0,1,1.86-6.67A6.14,6.14,0,0,1,293.52,53a6,6,0,0,1,5,2.13q1.65,2.13,1.68,6.63v2H289.59v.44a6.92,6.92,0,0,0,1.15,4.45,4,4,0,0,0,3.31,1.39,5.35,5.35,0,0,0,2.42-.52,5.9,5.9,0,0,0,2-1.64l1.61,2A7.05,7.05,0,0,1,293.88,72.7Zm-.36-17.05A3.26,3.26,0,0,0,290.66,57a8,8,0,0,0-1.06,4.12h7.49v-.42a7.38,7.38,0,0,0-1-3.87A3,3,0,0,0,293.52,55.65Z" transform="translate(-56.63 -34.32)" style="fill:#fff"/><path d="M329.26,61.81q0,5.23-2.23,8.06a8.51,8.51,0,0,1-12.6.08q-2.3-2.74-2.38-7.78V57.36q0-5.13,2.27-8a7.57,7.57,0,0,1,6.33-2.91,7.69,7.69,0,0,1,6.3,2.78q2.25,2.79,2.31,8ZM326,57.32c0-2.7-.44-4.72-1.32-6a5.11,5.11,0,0,0-8.09,0,10.61,10.61,0,0,0-1.38,5.91v4.59a10.81,10.81,0,0,0,1.36,6,4.57,4.57,0,0,0,4.07,2.06,4.51,4.51,0,0,0,4-1.9A10.6,10.6,0,0,0,326,62.12Z" transform="translate(-56.63 -34.32)" style="fill:#fff"/><path d="M341.65,56.25a7.69,7.69,0,0,0-1.4-.12,3.4,3.4,0,0,0-3.34,2.62v13.6h-3.12v-19h3l.05,1.94A3.86,3.86,0,0,1,340.4,53a2.61,2.61,0,0,1,1.23.25Z" transform="translate(-56.63 -34.32)" style="fill:#fff"/><path d="M353.83,72.35a7,7,0,0,1-.4-2.07,4.93,4.93,0,0,1-4.22,2.42,5.42,5.42,0,0,1-4-1.45,5.5,5.5,0,0,1-1.45-4.08,5.76,5.76,0,0,1,2-4.61,8.05,8.05,0,0,1,5.39-1.74h2.29v-2a2.67,2.67,0,0,0-3.06-3.15,3.18,3.18,0,0,0-2.29.84,2.8,2.8,0,0,0-.88,2.12H344a5.08,5.08,0,0,1,.86-2.79,6.06,6.06,0,0,1,2.32-2.08,6.93,6.93,0,0,1,3.26-.76,6.2,6.2,0,0,1,4.44,1.45,5.69,5.69,0,0,1,1.55,4.23v9.6a11.45,11.45,0,0,0,.6,3.81v.28Zm-4.14-2.48a4.16,4.16,0,0,0,2.18-.63,3.93,3.93,0,0,0,1.51-1.58V63.12h-1.76a5.93,5.93,0,0,0-3.5,1,3.16,3.16,0,0,0-1.28,2.68,3.41,3.41,0,0,0,.65,2.34A2.8,2.8,0,0,0,349.69,69.87Z" transform="translate(-56.63 -34.32)" style="fill:#fff"/><path d="M367.9,70.05a3.31,3.31,0,0,0,2.48-1,4,4,0,0,0,1-2.73h2.94a6.47,6.47,0,0,1-1.94,4.54,6.18,6.18,0,0,1-4.49,1.8,6.63,6.63,0,0,1-5.39-2.22q-1.86-2.22-1.86-6.62V61.77q0-4.31,1.85-6.55A6.57,6.57,0,0,1,367.88,53a6,6,0,0,1,4.63,1.85,7.51,7.51,0,0,1,1.82,5h-2.94a5.12,5.12,0,0,0-1-3.16,3.09,3.09,0,0,0-2.5-1.06A3.58,3.58,0,0,0,364.8,57a7.8,7.8,0,0,0-1,4.47v2.43c0,2.23.33,3.82,1,4.74A3.59,3.59,0,0,0,367.9,70.05Z" transform="translate(-56.63 -34.32)" style="fill:#fff"/><path d="M381.27,72.35h-3.11v-27h3.11Z" transform="translate(-56.63 -34.32)" style="fill:#fff"/><path d="M393,72.7a7,7,0,0,1-5.45-2.11,9.2,9.2,0,0,1-1.93-6.22v-2.3a10.75,10.75,0,0,1,1.85-6.67A6.18,6.18,0,0,1,392.61,53a5.91,5.91,0,0,1,5,2.13q1.66,2.13,1.69,6.63v2H388.67v.44a6.92,6.92,0,0,0,1.16,4.45,4,4,0,0,0,3.31,1.39,5.35,5.35,0,0,0,2.42-.52,6,6,0,0,0,2-1.64l1.61,2A7.06,7.06,0,0,1,393,72.7Zm-.35-17.05A3.26,3.26,0,0,0,389.75,57a7.88,7.88,0,0,0-1.06,4.12h7.49v-.42a7.27,7.27,0,0,0-1-3.87A3,3,0,0,0,392.61,55.65Z" transform="translate(-56.63 -34.32)" style="fill:#fff"/></svg>